<svg xmlns="http://www.w3.org/2000/svg" height="800" width="1200" viewBox="-52.44 -6.225 454.48 37.35"><path d="M6.3 11.6V1h3.3c4 0 5.4 2.6 5.4 5.1 0 3.4-2.1 5.6-6.5 5.6H6.3zm4.8.6c5.4-.4 8.2-2.7 8.2-6 0-3.1-2.1-5.9-8.5-5.9H0v.8h2.3v22.8H0v.8h9v-.8H6.3V12.3h.1l9.4 12.3h6v-.8H20zm24.6 2.2l3.7-10.3h.1l3.6 10.3zM42.1.2h-2.4l-8.5 23.7H29v.8h6.8v-.8h-3.6l3.2-9h7.9l3.1 9h-2.7v.8h8.2v-.8h-1.5zm31.2 23.6h-5.5V1.1h3.7V.3h-10v.8h2.3v22.8h-2.3v.8h18v-9.8h-.8c-2.2 8.5-2.9 8.9-5.4 8.9M97.5 1.4h3.8c3.9 0 5.5 2.2 5.5 5.6 0 4.3-1.8 5.3-5.8 5.3h-3.5V1.4zm3.5 22.5h-3.5V12.8h4.5c6.1 0 9-2.5 9-6.1 0-3.6-3.2-6.4-9-6.4H91.3v.8h2.3v22.7h-2.3v.8h9.6v-.7zm42.5.8v-.9h-2.3V1.3h2.3v-1h-8.7v1h2.3v10.4h-9.7V1.3h2.4v-1h-8.7v1h2.2v22.5h-2.2v.9h8.7v-.9h-2.4V12.4h9.7v11.4h-2.3v.9zm51.7-9.9h-.8c-2.3 8.5-3 9-5.4 9h-5.5V1.1h3.7V.3h-10v.8h2.3v22.8h-2.3v.8h18v-9.9m15.6-.4l3.7-10.3h.1l3.6 10.3zM217.3.2h-2.4l-8.6 23.7h-2.1v.8h6.8v-.8h-3.6l3.2-9h7.9l3.1 9h-2.7v.8h8.2v-.8h-1.4zm32.8.8h3.3v17.4c0 3.7-2.5 5.9-6.1 5.9-2.4 0-4.9-1.4-4.9-5.7V1h2.6V0h-8.9v.8h2.3v16.9c0 4.8 2.7 7.2 8.8 7.2 4.4 0 7.3-2.6 7.3-6.6V1h2.3V0h-6.7zm23.2 10.6V1h3.3c4 0 5.4 2.6 5.4 5.1 0 3.4-2.1 5.6-6.5 5.6h-2.2zm4.9.6c5.4-.4 8.2-2.7 8.2-6 0-3.1-2.1-5.9-8.5-5.9h-10.8v.8h2.3v22.8h-2.3v.8h9v-.8h-2.9V12.3h.1l9.4 12.3h6v-.8H287zm32.2 11.6h-6.5V12.3h2.9c1.9 0 2.7 1.1 3.5 4.8h.8V6.6h-.8c-.7 3.8-1.7 4.8-3.5 4.8h-2.9V1h7.4c1.8 0 2.4.5 4.4 7h.8V.3h-18.9v.8h2.3v22.8h-2.3v.8h19.3v-9.1h-.9c-2.2 7.2-3 8.2-5.6 8.2m35.8-22.5v16.6h-.1L335.1.3H328v1h2.5v22.5H328v.9h6.6v-.9h-3.1V1.9L346 24.7h1.1V1.3h2.5v-1h-6.4v1z"/></svg>