<?xml version="1.0" encoding="utf-8"?>
<!-- Generator: Adobe Illustrator 26.0.3, SVG Export Plug-In . SVG Version: 6.00 Build 0)  -->
<svg version="1.0" id="Layer_1" xmlns="http://www.w3.org/2000/svg" xmlns:xlink="http://www.w3.org/1999/xlink" x="0px" y="0px"
	 viewBox="0 0 654.4 485.1" style="enable-background:new 0 0 654.4 485.1;" xml:space="preserve">
<style type="text/css">
	.st0{fill:#015336;}
	.st1{fill:#C9252B;}
	.st2{fill:#FEFEFE;}
	.st3{fill:#0A223D;}
</style>
<path class="st0" d="M87.4,131.1h240.1v55H118.3v112.2h209.2c0,18.6,0,37.1,0,55.7c-80,0-160.1,0-240.1,0L87.4,131.1z"/>
<path class="st1" d="M327.5,131.1H567V354c-79.8,0-159.7,0-239.5,0c0-18.6,0-37.1,0-55.7h209V186.1h-209L327.5,131.1z"/>
<path class="st2" d="M118.3,186.1h418.2v112.2H118.3V186.1z M121.7,189.6v105.3h411.4V189.6H121.7z"/>
<path class="st2" d="M448,221.1l28.9,30.2v-28.4h4.8c0,13.4,0,26.8,0,40.1c-9.6-10.1-19.3-20.2-28.9-30.3v28.8H448
	C448,248,448,234.6,448,221.1z"/>
<path class="st2" d="M308.7,221.1c9.7,10.1,19.3,20.2,28.9,30.2c0-9.5,0-19,0-28.5h4.8c0,13.4,0,26.8,0,40.2
	c-9.6-10.1-19.3-20.2-28.9-30.3c0,9.6,0,19.2,0,28.7h-4.8C308.7,248.1,308.7,234.6,308.7,221.1z"/>
<path class="st2" d="M426.4,221.3c6.2,13.4,12.3,26.8,18.4,40.2h-5.2c-1.5-3.2-2.9-6.5-4.4-9.7h-17.7c-1.5,3.2-2.9,6.5-4.4,9.7H408
	L426.4,221.3z M426.4,231.8c-2.3,5.2-4.6,10.4-6.9,15.6h13.7C431,242.2,428.7,237,426.4,231.8L426.4,231.8z"/>
<path class="st2" d="M354.6,226.5c4.1-3.4,9.5-4.9,14.7-4.3c5.3,0.6,10.1,3.3,13.5,7.4c-1.1,1.1-2.3,2.1-3.4,3.2
	c-4.9-6.8-14.3-8.3-21.1-3.4c-2.8,2-4.8,4.9-5.7,8.2c-1.9,6.5,0.5,13.5,6,17.5c3.4,2.6,7.9,3.5,12,2.2c4.7-1.5,8.7-5.7,9-10.8
	c-3.4,0-6.7,0-10,0v-4.4h15.4c0.3,4.8-1,9.6-3.8,13.5c-3.2,4.2-8.2,6.7-13.5,6.8c-4.9,0.2-9.7-1.5-13.4-4.7
	c-8.5-7.3-9.5-20.1-2.2-28.6C352.7,228.1,353.6,227.2,354.6,226.5L354.6,226.5z"/>
<path class="st2" d="M138.9,222.9c5.7,0.1,11.9-0.7,17.1,2.4c3.5,2.2,4.4,6.8,3.9,10.6c-0.3,3.1-2.2,5.9-4.9,7.5
	c-3.4,1.9-7.4,2-11.2,1.9v16.2h-4.8V222.9z M143.7,227.2c0,4.6,0,9.2,0,13.8c2.8,0,5.9,0.1,8.5-1.3c4.1-2,4.5-8.9,0.5-11.1
	C149.9,227.1,146.7,227.2,143.7,227.2z"/>
<path class="st2" d="M164.5,222.9h20.7v4.4h-15.9v10.8h15.5v4.4h-15.5v14.6h15.9v4.4h-20.7C164.5,248.6,164.5,235.8,164.5,222.9z"/>
<path class="st2" d="M187.9,222.9H211v4.4h-9.1c0,11.4,0,22.8,0,34.2H197v-34.2h-9.1V222.9z"/>
<path class="st2" d="M215.2,222.9h20.7c0,1.5,0,2.9,0,4.4H220v10.8h15.5c0,1.5,0,2.9,0,4.4h-15.5v14.6h15.9c0,1.5,0,3,0,4.4h-20.6
	V222.9z"/>
<path class="st2" d="M242.1,222.9c3.7,0.1,7.3-0.2,11,0.2c3,0.2,5.8,1.6,7.7,3.9c3.1,4,3.2,9.6,0.2,13.7c-1.7,2.2-4.2,3.6-7,4
	c4.1,5.6,8.1,11.1,12.1,16.7h-5.9c-3.6-5.2-7.3-10.4-10.9-15.7c-0.4-0.9-1.6-0.6-2.4-0.8c0,5.5,0,10.9,0,16.4h-4.8
	C242.1,248.6,242.1,235.8,242.1,222.9z M246.9,227.2v13.9c2.8,0,5.8,0.1,8.4-1.2c4.3-2,4.5-9.1,0.3-11.3
	C253,227.2,249.9,227.2,246.9,227.2L246.9,227.2z"/>
<path class="st2" d="M282.2,222.9h20.7v4.4h-16v10.8h15.5v4.4H287c0,4.9,0,9.7,0,14.6h15.9v4.4h-20.7V222.9z"/>
<path class="st2" d="M390.1,222.9h4.8c0,11.4,0,22.8,0,34.1h11.7c0,1.5,0,3,0,4.4h-16.5V222.9z"/>
<path class="st2" d="M490.2,222.9c5.1,0.1,10.3-0.5,15.4,0.9c4.6,1.1,8.7,3.8,11.4,7.8c2.8,4.4,3.3,9.9,2.4,14.9
	c-0.7,4.2-3,7.9-6.3,10.6c-4.2,3.3-9.7,4.5-14.9,4.5h-7.9V222.9z M495,227.3v29.8c5.4,0.1,11.4-0.5,15.7-4.2c3.9-3.4,4.9-9,4.1-13.9
	c-0.5-3.6-2.6-6.8-5.7-8.8C504.9,227.6,499.8,227.2,495,227.3L495,227.3z"/>
<path class="st3" d="M121.7,189.6h411.4v105.3H121.7V189.6z M448,221.1c0,13.5,0,26.9,0,40.4h4.9v-28.8
	c9.6,10.1,19.3,20.2,28.9,30.3c0-13.4,0-26.8,0-40.1H477v28.4L448,221.1z M308.7,221.1c0,13.4,0,26.9,0,40.4h4.8
	c0-9.6,0-19.2,0-28.7c9.6,10.1,19.3,20.2,28.9,30.3c0-13.4,0-26.8,0-40.2h-4.8c0,9.5,0,19,0,28.5C328,241.3,318.3,231.2,308.7,221.1
	L308.7,221.1z M426.4,221.3L408,261.5h5.2c1.5-3.2,2.9-6.5,4.4-9.7h17.7c1.5,3.2,2.9,6.5,4.4,9.7h5.2
	C438.7,248.1,432.6,234.7,426.4,221.3L426.4,221.3z M354.6,226.4c-8.7,7-10.1,19.8-3,28.5c0.8,1,1.7,1.9,2.6,2.7
	c3.7,3.2,8.5,4.9,13.4,4.6c5.3-0.1,10.2-2.6,13.5-6.8c2.8-3.9,4.2-8.7,3.8-13.5h-15.4v4.4c3.4,0,6.7,0,10,0c-0.3,5.1-4.3,9.3-9,10.8
	c-4.1,1.2-8.6,0.4-12-2.2c-5.4-4-7.8-11-5.9-17.4c2.2-8,10.5-12.8,18.6-10.5c3.3,0.9,6.2,2.9,8.2,5.7c1.1-1.1,2.3-2.1,3.4-3.2
	c-3.4-4.1-8.2-6.7-13.5-7.4C364.1,221.6,358.8,223.1,354.6,226.4L354.6,226.4z M138.9,222.9v38.6h4.8v-16.2c3.8,0.1,7.8,0,11.2-1.9
	c2.8-1.5,4.6-4.3,4.9-7.5c0.5-3.8-0.4-8.4-3.9-10.6C150.8,222.2,144.6,223,138.9,222.9z M164.5,222.9c0,12.9,0,25.7,0,38.6h20.7
	v-4.4h-15.9v-14.6h15.5v-4.4h-15.5v-10.8h15.9v-4.4L164.5,222.9z M187.9,222.9v4.4h9.1v34.2h4.9c0-11.4,0-22.8,0-34.2h9.1v-4.4
	H187.9z M215.1,222.9v38.6h20.7c0-1.5,0-3,0-4.4h-15.9v-14.6h15.5c0-1.5,0-2.9,0-4.4h-15.5v-10.8h15.9c0-1.4,0-2.9,0-4.4
	L215.1,222.9z M242.1,222.9c0,12.9,0,25.7,0,38.6h4.8c0-5.5,0-10.9,0-16.4c0.8,0.2,2-0.2,2.4,0.8c3.6,5.2,7.3,10.5,10.9,15.7h5.9
	c-4-5.6-8.1-11.2-12.1-16.7c2.8-0.4,5.3-1.8,7-4c3-4.1,2.9-9.7-0.2-13.7c-1.9-2.3-4.7-3.7-7.7-3.9
	C249.4,222.7,245.8,223,242.1,222.9L242.1,222.9z M282.2,222.9v38.6h20.7v-4.4h-16c0-4.9,0-9.7,0-14.6h15.5v-4.4H287v-10.8h15.9
	v-4.4L282.2,222.9z M390.1,222.9v38.6h16.5c0-1.5,0-3,0-4.4h-11.8c0-11.4,0-22.8,0-34.1H390.1z M490.2,222.9v38.6h7.9
	c5.2,0,10.7-1.2,14.9-4.5c3.3-2.6,5.6-6.4,6.3-10.6c0.9-5,0.4-10.5-2.4-14.9c-2.7-3.9-6.8-6.7-11.4-7.8
	C500.5,222.4,495.3,223.1,490.2,222.9L490.2,222.9z"/>
<path class="st3" d="M143.7,227.2c3,0,6.3-0.1,9,1.4c4,2.2,3.7,9.1-0.5,11.1c-2.6,1.3-5.7,1.2-8.5,1.3
	C143.7,236.4,143.7,231.8,143.7,227.2z"/>
<path class="st3" d="M246.9,227.2c2.9,0,6.1,0,8.7,1.4c4.2,2.2,4,9.3-0.3,11.3c-2.6,1.3-5.6,1.2-8.4,1.2V227.2z"/>
<path class="st3" d="M495,227.3c4.8-0.1,9.9,0.3,14,2.9c3.1,2,5.2,5.2,5.7,8.8c0.8,4.9-0.1,10.5-4.1,13.9
	c-4.3,3.7-10.2,4.3-15.7,4.2L495,227.3z"/>
<path class="st3" d="M426.4,231.8c2.3,5.2,4.6,10.4,6.8,15.6h-13.7C421.9,242.2,424.2,237,426.4,231.8z"/>
</svg>
